<svg xmlns="http://www.w3.org/2000/svg" viewBox="0 0 850 980" width="100%" style="background:#0b0f19; border-radius:12px; font-family:system-ui, -apple-system, sans-serif;">
  <defs>
    <!-- Glow filter -->
    <filter id="glow" x="-20%" y="-20%" width="140%" height="140%">
      <feGaussianBlur stdDeviation="4" result="blur" />
      <feComposite in="SourceGraphic" in2="blur" operator="over" />
    </filter>
    <filter id="subtle-glow" x="-10%" y="-10%" width="120%" height="120%">
      <feGaussianBlur stdDeviation="2" result="blur" />
      <feComposite in="SourceGraphic" in2="blur" operator="over" />
    </filter>
    <!-- Gradients -->
    <linearGradient id="grad-cyan" x1="0%" y1="0%" x2="100%" y2="100%">
      <stop offset="0%" stop-color="#00f2fe" />
      <stop offset="100%" stop-color="#4facfe" />
    </linearGradient>
    <linearGradient id="grad-purple" x1="0%" y1="0%" x2="100%" y2="100%">
      <stop offset="0%" stop-color="#b92b27" />
      <stop offset="100%" stop-color="#1565c0" />
    </linearGradient>
    <linearGradient id="grad-pink" x1="0%" y1="0%" x2="100%" y2="100%">
      <stop offset="0%" stop-color="#ff007f" />
      <stop offset="100%" stop-color="#7f00ff" />
    </linearGradient>
    <linearGradient id="grad-gold" x1="0%" y1="0%" x2="100%" y2="100%">
      <stop offset="0%" stop-color="#ffd700" />
      <stop offset="100%" stop-color="#ff8c00" />
    </linearGradient>
    <linearGradient id="grad-green" x1="0%" y1="0%" x2="100%" y2="100%">
      <stop offset="0%" stop-color="#00ff87" />
      <stop offset="100%" stop-color="#60efff" />
    </linearGradient>
  </defs>

  <style>
    @keyframes pulse {
      0% { stroke-dashoffset: 80; }
      100% { stroke-dashoffset: 0; }
    }
    @keyframes pulse-fast {
      0% { stroke-dashoffset: 40; }
      100% { stroke-dashoffset: 0; }
    }
    .flow-line {
      stroke-dasharray: 8, 8;
      animation: pulse 3s linear infinite;
    }
    .flow-line-fast {
      stroke-dasharray: 6, 6;
      animation: pulse-fast 1.5s linear infinite;
    }
    .block-card {
      transition: all 0.3s ease;
    }
    .block-card:hover {
      filter: brightness(1.2);
    }
    .text-title {
      font-size: 18px;
      font-weight: bold;
      fill: #ffffff;
    }
    .text-subtitle {
      font-size: 11px;
      fill: #8a99ad;
    }
    .text-node {
      font-size: 12px;
      font-weight: 600;
      fill: #ffffff;
    }
    .text-dim {
      font-size: 10px;
      fill: #a0aec0;
      font-family: monospace;
    }
  </style>

  <!-- Title / Header -->
  <rect x="0" y="0" width="850" height="70" fill="#0f172a" rx="12" />
  <text x="30" y="42" class="text-title" fill="url(#grad-cyan)" filter="url(#subtle-glow)">NanoGPT LLM Block Architecture</text>
  <text x="30" y="58" class="text-subtitle">Execution Dataflow Visualizer (FastAPI &lt;&gt; PyTorch Causal Transformer)</text>
  <rect x="700" y="23" width="120" height="26" fill="#1e293b" rx="6" stroke="#334155" />
  <text x="760" y="40" font-size="11" font-weight="bold" fill="#00ff87" text-anchor="middle" filter="url(#subtle-glow)">● ACTIVE CUBE</text>

  <!-- Step 1: Input Tokens & Embedding -->
  <g transform="translate(100, 100)">
    <rect x="0" y="0" width="220" height="50" fill="#131924" rx="8" stroke="#3b82f6" stroke-width="1.5" />
    <text x="15" y="22" class="text-node">Input Sequence (Prompt)</text>
    <text x="15" y="38" class="text-dim">idx: [B, T] (integer tokens)</text>
    <circle cx="200" cy="25" r="5" fill="#3b82f6" />
  </g>

  <!-- WTE (Token Embed) -->
  <g transform="translate(100, 180)">
    <rect x="0" y="0" width="100" height="50" fill="#1e293b" rx="6" stroke="#4facfe" stroke-width="1" />
    <text x="10" y="24" class="text-node">wte (Embed)</text>
    <text x="10" y="40" class="text-dim">wte: [V, C]</text>
  </g>

  <!-- WPE (Positional Embed) -->
  <g transform="translate(220, 180)">
    <rect x="0" y="0" width="100" height="50" fill="#1e293b" rx="6" stroke="#4facfe" stroke-width="1" />
    <text x="10" y="24" class="text-node">wpe (Pos)</text>
    <text x="10" y="40" class="text-dim">wpe: [T, C]</text>
  </g>

  <!-- Add Node (WTE + WPE) -->
  <circle cx="210" cy="270" r="16" fill="#1e293b" stroke="#00f2fe" stroke-width="2" filter="url(#subtle-glow)" />
  <text x="210" y="274" fill="#ffffff" font-size="16" font-weight="bold" text-anchor="middle">+</text>
  <text x="235" y="274" class="text-dim">x = tok_emb + pos_emb [B, T, C]</text>

  <!-- Links Token Input to Embeddings -->
  <path d="M 210,150 L 150,150 L 150,180" fill="none" stroke="#3b82f6" stroke-width="2" />
  <path d="M 210,150 L 270,150 L 270,180" fill="none" stroke="#3b82f6" stroke-width="2" />
  
  <path d="M 150,230 L 150,250 L 196,264" fill="none" stroke="#4facfe" stroke-width="2" />
  <path d="M 270,230 L 270,250 L 224,264" fill="none" stroke="#4facfe" stroke-width="2" />

  <!-- Flow lines to Transformer Block -->
  <path d="M 210,286 L 210,320" fill="none" stroke="#00f2fe" stroke-dasharray="6,6" stroke-width="2" class="flow-line" />

  <!-- SECTION 2: TRANSFORMER BLOCK (n_layer repetitions) -->
  <!-- Outer Box for Block -->
  <g transform="translate(60, 320)">
    <rect x="0" y="0" width="730" height="380" fill="#0c111d" rx="10" stroke="#ff007f" stroke-width="1.5" stroke-opacity="0.6" />
    <text x="20" y="25" fill="#ff007f" font-weight="bold" font-size="13" filter="url(#subtle-glow)">TRANSFORMER BLOCK [Block Layer - Pre-LN Pattern]</text>
    <text x="710" y="25" class="text-dim" text-anchor="end">Block x (Layer Norm -> Attn/MLP -> Residual)</text>
  </g>

  <!-- LayerNorm 1 -->
  <g transform="translate(110, 360)">
    <rect x="0" y="0" width="200" height="40" fill="#1e293b" rx="6" stroke="#ffd700" stroke-width="1" />
    <text x="15" y="24" class="text-node">ln_1 (LayerNorm)</text>
    <text x="140" y="24" class="text-dim">[B, T, C]</text>
  </g>

  <!-- Causal Self-Attention (Attention Heads) -->
  <g transform="translate(110, 430)">
    <rect x="0" y="0" width="200" height="90" fill="#161b26" rx="8" stroke="#00ff87" stroke-width="2" />
    <text x="15" y="25" class="text-node">CausalSelfAttention</text>
    <text x="15" y="42" font-size="10" fill="#8a99ad">Q, K, V Projections (c_attn)</text>
    <text x="15" y="58" font-size="10" fill="#8a99ad">Masked Scaled Dot-Product</text>
    <text x="15" y="75" font-size="9" fill="#00ff87" font-weight="bold">Multi-Head (n_head=4)</text>
    <text x="140" y="75" class="text-dim">c_proj</text>
  </g>

  <!-- Residual Add 1 -->
  <circle cx="210" cy="570" r="16" fill="#1e293b" stroke="#ff007f" stroke-width="2" />
  <text x="210" y="575" fill="#ffffff" font-size="16" font-weight="bold" text-anchor="middle">+</text>
  <text x="235" y="575" class="text-dim">x = x + attn(ln_1(x))</text>

  <!-- Data Flow LayerNorm 1 -> Attn -> Add 1 -->
  <path d="M 210,306 L 210,360" fill="none" stroke="#00f2fe" stroke-width="2" />
  <path d="M 210,400 L 210,430" fill="none" stroke="#ffd700" stroke-width="2" />
  <path d="M 210,520 L 210,554" fill="none" stroke="#00ff87" stroke-width="2" />

  <!-- Residual Bypass Path 1 -->
  <!-- Starts before LN1 (y=340) goes left, down, and into Add 1 (y=570) -->
  <path d="M 210,340 L 90,340 L 90,570 L 194,570" fill="none" stroke="#ff007f" stroke-width="2" stroke-dasharray="6,6" class="flow-line-fast" />

  <!-- Flow Line to LayerNorm 2 -->
  <path d="M 210,586 L 210,630 M 210,630 L 460,630 L 460,340 M 460,340 L 510,340" fill="none" stroke="#00f2fe" stroke-width="2" />

  <!-- LayerNorm 2 -->
  <g transform="translate(510, 360)">
    <rect x="0" y="0" width="200" height="40" fill="#1e293b" rx="6" stroke="#ffd700" stroke-width="1" />
    <text x="15" y="24" class="text-node">ln_2 (LayerNorm)</text>
    <text x="140" y="24" class="text-dim">[B, T, C]</text>
  </g>

  <!-- MLP Block -->
  <g transform="translate(510, 430)">
    <rect x="0" y="0" width="200" height="90" fill="#161b26" rx="8" stroke="#7f00ff" stroke-width="2" />
    <text x="15" y="25" class="text-node">MLP (Feed Forward)</text>
    <text x="15" y="45" font-size="10" fill="#8a99ad">c_fc: linear C → 4C</text>
    <text x="15" y="60" font-size="10" fill="#00ff87">GELU Non-linearity</text>
    <text x="15" y="75" font-size="10" fill="#8a99ad">c_proj: linear 4C → C</text>
  </g>

  <!-- Residual Add 2 -->
  <circle cx="610" cy="570" r="16" fill="#1e293b" stroke="#ff007f" stroke-width="2" />
  <text x="610" y="575" fill="#ffffff" font-size="16" font-weight="bold" text-anchor="middle">+</text>
  <text x="635" y="575" class="text-dim">x = x + mlp(ln_2(x))</text>

  <!-- Data Flow LayerNorm 2 -> MLP -> Add 2 -->
  <path d="M 610,340 L 610,360" fill="none" stroke="#00f2fe" stroke-width="2" />
  <path d="M 610,400 L 610,430" fill="none" stroke="#ffd700" stroke-width="2" />
  <path d="M 610,520 L 610,554" fill="none" stroke="#7f00ff" stroke-width="2" />

  <!-- Residual Bypass Path 2 -->
  <!-- Starts before LN2 (y=340) goes right, down, and into Add 2 (y=570) -->
  <path d="M 610,340 L 730,340 L 730,570 L 626,570" fill="none" stroke="#ff007f" stroke-width="2" stroke-dasharray="6,6" class="flow-line-fast" />

  <!-- SECTION 3: OUTPUT PIPELINE -->
  <!-- Flow out of Block -->
  <path d="M 610,586 L 610,720 L 460,720 L 460,740" fill="none" stroke="#00f2fe" stroke-width="2" />

  <!-- final LayerNorm -->
  <g transform="translate(360, 740)">
    <rect x="0" y="0" width="200" height="40" fill="#1e293b" rx="6" stroke="#ffd700" stroke-width="1" />
    <text x="15" y="24" class="text-node">ln_f (Final LayerNorm)</text>
    <text x="140" y="24" class="text-dim">[B, T, C]</text>
  </g>

  <!-- lm_head (Linear Output Projection) -->
  <g transform="translate(360, 810)">
    <rect x="0" y="0" width="200" height="50" fill="#1e293b" rx="6" stroke="#ffd700" stroke-width="2" />
    <text x="15" y="25" class="text-node">lm_head (Linear Projection)</text>
    <text x="15" y="42" class="text-dim">tied weights with wte [C, V]</text>
  </g>

  <!-- Connection to Logits -->
  <path d="M 460,780 L 460,810" fill="none" stroke="#ffd700" stroke-width="2" />
  <path d="M 460,860 L 460,890" fill="none" stroke="#ff8c00" stroke-width="2" stroke-dasharray="6,6" class="flow-line" />

  <!-- Logits Box -->
  <g transform="translate(340, 890)">
    <rect x="0" y="0" width="240" height="60" fill="#131924" rx="8" stroke="#ff8c00" stroke-width="1.5" />
    <text x="15" y="22" class="text-node">Logits &amp; Inference Pipeline</text>
    <text x="15" y="38" class="text-dim">Softmax Probability (Temperature, Top-K)</text>
    <text x="15" y="52" class="text-dim">Output token prediction: [B, T, V]</text>
  </g>
</svg>
